<svg xmlns="http://www.w3.org/2000/svg" width="400" height="700" viewBox="0 0 400 700">
  <defs>
    <radialGradient id="bg" cx="50%" cy="30%" r="70%">
      <stop offset="0%" stop-color="#4ECDC4" stop-opacity="0.3"/>
      <stop offset="100%" stop-color="#0A0E1A" stop-opacity="0"/>
    </radialGradient>
  </defs>
  <rect width="400" height="700" fill="url(#bg)"/>
  <rect x="130" y="280" width="140" height="200" rx="10" fill="#111827"/>
  <rect x="150" y="275" width="100" height="20" rx="5" fill="#4ECDC4"/>
  <ellipse cx="200" cy="200" rx="80" ry="90" fill="#FFD4A8"/>
  <!-- Dark hair messy -->
  <ellipse cx="200" cy="150" rx="88" ry="65" fill="#1a1a1a"/>
  <rect x="112" y="150" width="25" height="70" rx="12" fill="#1a1a1a"/>
  <rect x="263" y="150" width="25" height="70" rx="12" fill="#1a1a1a"/>
  <ellipse cx="175" cy="135" rx="20" ry="30" fill="#1a1a1a" transform="rotate(-15,175,135)"/>
  <!-- Earring -->
  <circle cx="118" cy="230" r="5" fill="#4ECDC4"/>
  <!-- Eyes -->
  <ellipse cx="178" cy="210" rx="11" ry="9" fill="#2D1B0E"/>
  <ellipse cx="222" cy="210" rx="11" ry="9" fill="#2D1B0E"/>
  <circle cx="182" cy="207" r="3" fill="white"/>
  <circle cx="226" cy="207" r="3" fill="white"/>
  <path d="M188 238 Q200 244 212 238" stroke="#c87" stroke-width="2" fill="none" stroke-linecap="round"/>
  <text x="200" y="670" text-anchor="middle" font-family="sans-serif" font-size="28" fill="#4ECDC4" font-weight="bold">세진</text>
</svg>
