<svg xmlns="http://www.w3.org/2000/svg" width="400" height="700" viewBox="0 0 400 700">
  <defs>
    <radialGradient id="bg" cx="50%" cy="30%" r="70%">
      <stop offset="0%" stop-color="#A78BFA" stop-opacity="0.3"/>
      <stop offset="100%" stop-color="#0A0E1A" stop-opacity="0"/>
    </radialGradient>
  </defs>
  <rect width="400" height="700" fill="url(#bg)"/>
  <rect x="130" y="280" width="140" height="200" rx="10" fill="#1a1a2e"/>
  <rect x="150" y="275" width="100" height="20" rx="5" fill="#A78BFA"/>
  <!-- Book -->
  <rect x="100" y="360" width="70" height="90" rx="5" fill="#7C3AED"/>
  <rect x="100" y="360" width="8" height="90" fill="#5B21B6"/>
  <ellipse cx="200" cy="200" rx="78" ry="88" fill="#FFD4A8"/>
  <!-- Purple bob hair -->
  <ellipse cx="200" cy="155" rx="82" ry="58" fill="#7C3AED"/>
  <rect x="118" y="155" width="22" height="90" rx="11" fill="#7C3AED"/>
  <rect x="260" y="155" width="22" height="90" rx="11" fill="#7C3AED"/>
  <!-- Eyes gentle -->
  <ellipse cx="178" cy="208" rx="10" ry="8" fill="#2D1B3D"/>
  <ellipse cx="222" cy="208" rx="10" ry="8" fill="#2D1B3D"/>
  <circle cx="181" cy="205" r="3" fill="white"/>
  <circle cx="225" cy="205" r="3" fill="white"/>
  <path d="M190 234 Q200 240 210 234" stroke="#c87" stroke-width="2" fill="none" stroke-linecap="round"/>
  <text x="200" y="670" text-anchor="middle" font-family="sans-serif" font-size="28" fill="#A78BFA" font-weight="bold">다은</text>
</svg>
